<mxfile host="app.diagrams.net" modified="2022-05-30T05:44:37.135Z" agent="5.0 (Windows NT 10.0; Win64; x64) AppleWebKit/537.36 (KHTML, like Gecko) Chrome/101.0.4951.67 Safari/537.36" etag="Kl5RaCvxp6XvaHXzoJ0_" version="18.1.2" type="github">
  <diagram id="RE61JTw9JwMp1RY22H3t" name="Page-1">
    <mxGraphModel dx="924" dy="536" grid="1" gridSize="10" guides="1" tooltips="1" connect="1" arrows="1" fold="1" page="1" pageScale="1" pageWidth="850" pageHeight="1100" math="0" shadow="0">
      <root>
        <mxCell id="0" />
        <mxCell id="1" parent="0" />
        <mxCell id="YIe6xk7h2sxftXTj8zEr-1" value="&lt;span style=&quot;box-sizing: inherit; padding: 0px; border: 0px; margin: 0px; font-variant-numeric: inherit; font-variant-east-asian: inherit; font-stretch: inherit; line-height: inherit; font-size: 11px; vertical-align: baseline; color: rgb(22, 22, 22); text-align: left;&quot; class=&quot;ph&quot;&gt;Operational Risk Management&lt;/span&gt;&lt;span style=&quot;color: rgb(22, 22, 22); font-size: 11px; text-align: left;&quot;&gt;&amp;nbsp;(ORM)&lt;/span&gt;" style="rounded=1;whiteSpace=wrap;html=1;fontFamily=Tahoma;fontSize=11;fillColor=#21C0A5;fontColor=#5C5C5C;strokeColor=#006658;" vertex="1" parent="1">
          <mxGeometry x="90" y="190" width="120" height="60" as="geometry" />
        </mxCell>
        <mxCell id="YIe6xk7h2sxftXTj8zEr-2" value="&lt;span style=&quot;box-sizing: inherit; padding: 0px; border: 0px; margin: 0px; font-variant-numeric: inherit; font-variant-east-asian: inherit; font-stretch: inherit; line-height: inherit; font-size: 11px; vertical-align: baseline; color: rgb(22, 22, 22); text-align: left;&quot; class=&quot;ph&quot;&gt;Business Continuity Management&lt;/span&gt;&lt;span style=&quot;color: rgb(22, 22, 22); font-size: 11px; text-align: left;&quot;&gt;&amp;nbsp;(BCM)&lt;/span&gt;" style="rounded=1;whiteSpace=wrap;html=1;fontFamily=Tahoma;fontSize=11;fillColor=#21C0A5;fontColor=#5C5C5C;strokeColor=#006658;" vertex="1" parent="1">
          <mxGeometry x="220" y="120" width="120" height="60" as="geometry" />
        </mxCell>
        <mxCell id="YIe6xk7h2sxftXTj8zEr-3" value="&lt;span style=&quot;box-sizing: inherit; padding: 0px; border: 0px; margin: 0px; font-variant-numeric: inherit; font-variant-east-asian: inherit; font-stretch: inherit; line-height: inherit; font-size: 11px; vertical-align: baseline; color: rgb(22, 22, 22); text-align: left;&quot; class=&quot;ph&quot;&gt;Financial Controls Management&lt;/span&gt;&lt;span style=&quot;color: rgb(22, 22, 22); font-size: 11px; text-align: left;&quot;&gt;&amp;nbsp;(FCM)&lt;/span&gt;" style="rounded=1;whiteSpace=wrap;html=1;fontFamily=Tahoma;fontSize=11;fillColor=#21C0A5;fontColor=#5C5C5C;strokeColor=#006658;" vertex="1" parent="1">
          <mxGeometry x="220" y="260" width="120" height="60" as="geometry" />
        </mxCell>
        <mxCell id="YIe6xk7h2sxftXTj8zEr-4" value="&lt;span style=&quot;box-sizing: inherit; padding: 0px; border: 0px; margin: 0px; font-variant-numeric: inherit; font-variant-east-asian: inherit; font-stretch: inherit; line-height: inherit; font-size: 11px; vertical-align: baseline; color: rgb(22, 22, 22); text-align: left;&quot; class=&quot;ph&quot;&gt;Model Risk Governance&lt;/span&gt;&lt;span style=&quot;color: rgb(22, 22, 22); font-size: 11px; text-align: left;&quot;&gt;&amp;nbsp;(MRG)&lt;/span&gt;" style="rounded=1;whiteSpace=wrap;html=1;fontFamily=Tahoma;fontSize=11;fillColor=#21C0A5;fontColor=#5C5C5C;strokeColor=#006658;" vertex="1" parent="1">
          <mxGeometry x="90" y="260" width="120" height="60" as="geometry" />
        </mxCell>
        <mxCell id="YIe6xk7h2sxftXTj8zEr-5" value="&lt;span style=&quot;box-sizing: inherit; padding: 0px; border: 0px; margin: 0px; font-variant-numeric: inherit; font-variant-east-asian: inherit; font-stretch: inherit; line-height: inherit; font-size: 11px; vertical-align: baseline; color: rgb(22, 22, 22); text-align: left;&quot; class=&quot;ph&quot;&gt;Policy Management&lt;/span&gt;&lt;span style=&quot;color: rgb(22, 22, 22); font-size: 11px; text-align: left;&quot;&gt;&amp;nbsp;(PCM)&lt;/span&gt;" style="rounded=1;whiteSpace=wrap;html=1;fontFamily=Tahoma;fontSize=11;fillColor=#21C0A5;fontColor=#5C5C5C;strokeColor=#006658;" vertex="1" parent="1">
          <mxGeometry x="350" y="120" width="120" height="60" as="geometry" />
        </mxCell>
        <mxCell id="YIe6xk7h2sxftXTj8zEr-6" value="&lt;span style=&quot;box-sizing: inherit; padding: 0px; border: 0px; margin: 0px; font-variant-numeric: inherit; font-variant-east-asian: inherit; font-stretch: inherit; line-height: inherit; font-size: 11px; vertical-align: baseline; color: rgb(22, 22, 22); text-align: left;&quot; class=&quot;ph&quot;&gt;&amp;nbsp;IT Governance&lt;/span&gt;&lt;span style=&quot;color: rgb(22, 22, 22); font-size: 11px; text-align: left;&quot;&gt;&amp;nbsp;(ITG)&amp;nbsp;&lt;/span&gt;" style="rounded=1;whiteSpace=wrap;html=1;fontFamily=Tahoma;fontSize=11;fillColor=#21C0A5;fontColor=#5C5C5C;strokeColor=#006658;" vertex="1" parent="1">
          <mxGeometry x="220" y="190" width="120" height="60" as="geometry" />
        </mxCell>
        <mxCell id="YIe6xk7h2sxftXTj8zEr-7" value="&lt;span style=&quot;box-sizing: inherit; padding: 0px; border: 0px; margin: 0px; font-variant-numeric: inherit; font-variant-east-asian: inherit; font-stretch: inherit; line-height: inherit; font-size: 11px; vertical-align: baseline; color: rgb(22, 22, 22); text-align: left;&quot; class=&quot;ph&quot;&gt;Internal Audit Management&lt;/span&gt;&lt;span style=&quot;color: rgb(22, 22, 22); font-size: 11px; text-align: left;&quot;&gt;&amp;nbsp;(IAM)&lt;/span&gt;" style="rounded=1;whiteSpace=wrap;html=1;fontFamily=Tahoma;fontSize=11;fillColor=#21C0A5;fontColor=#5C5C5C;strokeColor=#006658;" vertex="1" parent="1">
          <mxGeometry x="90" y="120" width="120" height="60" as="geometry" />
        </mxCell>
        <mxCell id="YIe6xk7h2sxftXTj8zEr-8" value="&lt;p&gt;&lt;span style=&quot;box-sizing: inherit; padding: 0px; border: 0px; margin: 0px; font-variant-numeric: inherit; font-variant-east-asian: inherit; font-stretch: inherit; line-height: inherit; font-size: 11px; vertical-align: baseline; color: rgb(22, 22, 22); text-align: left;&quot; class=&quot;ph&quot;&gt;Regulatory Compliance Management&lt;/span&gt;&lt;span style=&quot;color: rgb(22, 22, 22); font-size: 11px; text-align: left;&quot;&gt;&amp;nbsp;(RCM)&lt;/span&gt;&lt;/p&gt;" style="rounded=1;whiteSpace=wrap;html=1;fontFamily=Tahoma;fontSize=11;fillColor=#21C0A5;fontColor=#5C5C5C;strokeColor=#006658;" vertex="1" parent="1">
          <mxGeometry x="350" y="190" width="120" height="60" as="geometry" />
        </mxCell>
        <mxCell id="YIe6xk7h2sxftXTj8zEr-9" value="&lt;span style=&quot;box-sizing: inherit; padding: 0px; border: 0px; margin: 0px; font-variant-numeric: inherit; font-variant-east-asian: inherit; font-stretch: inherit; line-height: inherit; font-size: 11px; vertical-align: baseline; color: rgb(22, 22, 22); text-align: left;&quot; class=&quot;ph&quot;&gt;Third Party Risk Management&lt;/span&gt;&lt;span style=&quot;color: rgb(22, 22, 22); font-size: 11px; text-align: left;&quot;&gt;&amp;nbsp;(TPRM)&lt;/span&gt;" style="rounded=1;whiteSpace=wrap;html=1;fontFamily=Tahoma;fontSize=11;fillColor=#21C0A5;fontColor=#5C5C5C;strokeColor=#006658;" vertex="1" parent="1">
          <mxGeometry x="350" y="260" width="120" height="60" as="geometry" />
        </mxCell>
      </root>
    </mxGraphModel>
  </diagram>
</mxfile>
